<svg width="17" height="19" viewBox="0 0 17 19" fill="none" xmlns="http://www.w3.org/2000/svg">
<path d="M13.9709 4.28859L13.9709 4.28859L13.9689 4.28641C13.5675 3.83279 12.9041 3.75812 12.4355 4.09539L12.4351 4.09572C11.9371 4.45316 11.768 5.11666 12.0467 5.66837L12.048 5.6711C12.1099 5.79596 12.21 5.92301 12.3295 6.04248L12.3313 6.04426C13.7678 7.49822 14.3446 9.27351 13.8341 11.3294L13.8341 11.3295C13.3467 13.2894 12.0917 14.5916 10.2445 15.1773L10.2439 15.1775C8.44328 15.7457 6.74728 15.3827 5.29388 14.1611C4.04107 13.1106 3.39946 11.6968 3.37741 10.0317C3.35841 8.70294 3.80423 7.52798 4.62334 6.5252C4.69461 6.43739 4.77427 6.36624 4.83165 6.31544C4.83667 6.31099 4.84153 6.30669 4.84624 6.30253C4.90259 6.25268 4.93764 6.22167 4.96798 6.1882L4.96796 6.18818L4.97096 6.18495C5.30073 5.82898 5.38905 5.42543 5.2451 4.95198C5.09945 4.48526 4.79132 4.22026 4.32754 4.12616C3.98894 4.05821 3.68271 4.14281 3.38091 4.38516L3.3797 4.38612C2.77749 4.8659 2.35488 5.51596 1.96091 6.25146C1.29889 7.48851 1.00045 8.824 1.04796 10.2448L1.04797 10.2453C1.10386 11.9779 1.65231 13.5167 2.68688 14.8675C3.66911 16.1469 4.8955 17.0439 6.37933 17.4968L6.37967 17.4969C8.91199 18.2721 11.2522 17.8673 13.3721 16.2076L13.3723 16.2075C14.7443 15.1347 15.6462 13.7092 16.0941 11.9676L16.0945 11.9658C16.2628 11.3235 16.336 10.6622 16.339 9.98213C16.3074 7.81725 15.5663 5.97535 14.1076 4.44387L14.3973 4.168L14.1084 4.4447C14.0771 4.41197 14.0257 4.35224 13.9948 4.31625C13.9833 4.30291 13.9747 4.29283 13.9709 4.28859Z" fill="#FE724C" stroke="white" stroke-width="0.8"/>
<path d="M7.11147 7.65631C7.11439 8.49666 7.72618 9.19338 8.52238 9.27283C9.34785 9.35839 10.0855 8.80224 10.2494 7.96495C10.2728 7.84577 10.2758 7.72354 10.2758 7.60131M7.11147 7.65631C7.10561 5.39502 7.10561 4.60039 7.11147 2.33909C7.11147 1.7371 7.3837 1.26956 7.87254 0.963981C8.38187 0.643122 8.92633 0.630898 9.44737 0.930367C9.98012 1.23595 10.267 1.72182 10.2699 2.36354M7.11147 7.65631L7.51146 7.65528C7.51146 7.65525 7.51146 7.65522 7.51146 7.65519C7.51385 8.30414 7.98334 8.81706 8.5621 8.87481L8.56362 8.87496C9.17577 8.93841 9.73127 8.5297 9.85688 7.8881L9.85693 7.88783C9.87223 7.80998 9.87575 7.72163 9.87577 7.60235M7.11147 7.65631L7.51146 7.65492L9.87577 7.60235M10.2699 2.36354C10.2718 3.08131 10.2713 3.50094 10.2707 4.00303C10.2703 4.28757 10.2699 4.59858 10.2699 5.00534V5.00539C10.2699 6.11461 10.2699 6.49207 10.2758 7.60131M10.2699 2.36354L9.86992 2.36536C9.86992 2.36524 9.86992 2.36512 9.86992 2.36499M10.2699 2.36354L9.86992 2.36458C9.86992 2.36472 9.86992 2.36486 9.86992 2.36499M10.2758 7.60131L9.87578 7.60342C9.87578 7.60306 9.87577 7.6027 9.87577 7.60235M10.2758 7.60131H9.87577C9.87577 7.60165 9.87577 7.602 9.87577 7.60235M9.87577 7.60235C9.86992 6.4929 9.86992 6.11454 9.86992 5.00534C9.86992 4.59755 9.8703 4.28623 9.87065 4.00165C9.87127 3.50025 9.87179 3.08185 9.86992 2.36499M9.87577 7.60235L7.51146 2.34013L7.51147 2.33909C7.51147 1.87805 7.71005 1.53727 8.08457 1.30316L8.08575 1.30243L8.08574 1.30242C8.47045 1.06008 8.85619 1.05195 9.24805 1.27717L9.24835 1.27734C9.65559 1.51093 9.86753 1.8642 9.86992 2.36499" fill="#FE724C" stroke="white" stroke-width="0.8"/>
</svg>
